<?xml version="1.0" encoding="UTF-8" standalone="no"?>
<!-- Created with Inkscape (http://www.inkscape.org/) -->

<svg
   xmlns:dc="http://purl.org/dc/elements/1.1/"
   xmlns:cc="http://creativecommons.org/ns#"
   xmlns:rdf="http://www.w3.org/1999/02/22-rdf-syntax-ns#"
   xmlns:svg="http://www.w3.org/2000/svg"
   xmlns="http://www.w3.org/2000/svg"
   xmlns:sodipodi="http://sodipodi.sourceforge.net/DTD/sodipodi-0.dtd"
   xmlns:inkscape="http://www.inkscape.org/namespaces/inkscape"
   width="283.70078"
   height="845.51971"
   viewBox="0 0 75.062965 223.71135"
   version="1.1"
   id="trebleClef20170606002844"
   inkscape:version="0.92.0 r15299"
   sodipodi:docname="trebleClef.svg">
  <defs
     id="defs2" />
  <sodipodi:namedview
     id="base"
     pagecolor="#ffffff"
     bordercolor="#666666"
     borderopacity="1.0"
     inkscape:pageopacity="0.0"
     inkscape:pageshadow="2"
     inkscape:zoom="0.49497475"
     inkscape:cx="189.56476"
     inkscape:cy="476.30675"
     inkscape:document-units="mm"
     inkscape:current-layer="layer1"
     showgrid="false"
     inkscape:snap-nodes="false"
     units="px"
     inkscape:window-width="1920"
     inkscape:window-height="1017"
     inkscape:window-x="3832"
     inkscape:window-y="-8"
     inkscape:window-maximized="1" />
  <metadata
     id="metadata5">
    <rdf:RDF>
      <cc:Work
         rdf:about="">
        <dc:format>image/svg+xml</dc:format>
        <dc:type
           rdf:resource="http://purl.org/dc/dcmitype/StillImage" />
        <dc:title></dc:title>
      </cc:Work>
    </rdf:RDF>
  </metadata>
  <g
     inkscape:label="Layer 1"
     inkscape:groupmode="layer"
     id="layer1"
     transform="translate(0,-73.293029)">
    <path
       sodipodi:nodetypes="sssszssscssszsssscs"
       inkscape:connector-curvature="0"
       id="path4491"
       d="m 32.645411,293.99666 c 7.02948,1.66517 15.08816,0.52485 16.64742,-6.6437 8.41077,-38.66786 -18.34252,-167.96727 -12.6327,-183.14853 6.61333,-17.583522 8.37299,-32.695546 15.44479,-13.105492 8.5602,23.713082 -0.37597,44.382382 -15.89799,61.075672 -15.522016,16.69329 -54.874496,65.96011 -15.960546,97.0474 13.800196,11.02456 37.475166,7.91619 47.235406,-8.60935 10.22893,-17.3191 -1.36802,-50.12548 -29.09581,-47.65888 -23.214703,2.06513 -25.837187,37.0437 1.55645,46.38241 -26.953404,-15.06172 -15.6542,-40.34877 1.93001,-39.81431 16.70086,0.50762 27.27732,20.49787 23.37286,33.57142 -5.35698,17.93708 -26.94722,25.41121 -41.07222,15.21286 -39.658751,-28.63392 1.319,-68.90805 19.04218,-90.88413 17.72318,-21.97612 17.42416,-44.85372 10.17497,-68.999872 -8.3925,-27.95447 -15.53719,-2.64156 -20.28736,17.067602 -3.8003,15.76801 20.67923,140.91892 13.5682,179.84676 -1.22908,6.72834 -8.57239,8.25389 -12.57527,7.02894 -5.20258,-1.59207 -11.26881,-5.97078 -13.673643,-14.02362 -0.916539,5.44685 4.449713,13.81341 12.223253,15.65482 z"
       style="fill:#000000;stroke:#000000;stroke-width:0.87161583px;stroke-linecap:butt;stroke-linejoin:miter;stroke-opacity:1" />
    <circle
       r="9.024766"
       cy="278.87866"
       cx="28.827446"
       id="circle4493"
       style="stroke-width:19.09013176;stroke-linecap:round;stroke-miterlimit:4;stroke-dasharray:none" />
  </g>
</svg>
